<svg width="33" height="33" viewBox="0 0 33 33" fill="none" xmlns="http://www.w3.org/2000/svg">
<path opacity="0.1" fill-rule="evenodd" clip-rule="evenodd" d="M0.5 16.781C0.5 7.94445 7.66344 0.781006 16.5 0.781006C25.3366 0.781006 32.5 7.94445 32.5 16.781C32.5 25.6176 25.3366 32.781 16.5 32.781C7.66344 32.781 0.5 25.6176 0.5 16.781Z" fill="white"/>
<path fill-rule="evenodd" clip-rule="evenodd" d="M23.1677 11.2805C23.9021 11.482 24.4804 12.0758 24.6767 12.8298C25.0333 14.1963 25.0333 17.0476 25.0333 17.0476C25.0333 17.0476 25.0333 19.8988 24.6767 21.2655C24.4804 22.0195 23.9021 22.6132 23.1677 22.8149C21.8369 23.181 16.5 23.181 16.5 23.181C16.5 23.181 11.1631 23.181 9.83218 22.8149C9.09783 22.6132 8.5195 22.0195 8.32323 21.2655C7.96667 19.8988 7.96667 17.0476 7.96667 17.0476C7.96667 17.0476 7.96667 14.1963 8.32323 12.8298C8.5195 12.0758 9.09783 11.482 9.83218 11.2805C11.1631 10.9143 16.5 10.9143 16.5 10.9143C16.5 10.9143 21.8369 10.9143 23.1677 11.2805ZM14.9 14.6476V19.9809L19.1667 17.3144L14.9 14.6476Z" fill="white"/>
</svg>
