<svg width="33" height="33" viewBox="0 0 33 33" fill="none" xmlns="http://www.w3.org/2000/svg">
<path opacity="0.1" fill-rule="evenodd" clip-rule="evenodd" d="M0.5 16.781C0.5 7.94445 7.66344 0.781006 16.5 0.781006C25.3366 0.781006 32.5 7.94445 32.5 16.781C32.5 25.6176 25.3366 32.781 16.5 32.781C7.66344 32.781 0.5 25.6176 0.5 16.781Z" fill="white"/>
<path fill-rule="evenodd" clip-rule="evenodd" d="M16.5008 8.24756C14.1833 8.24756 13.8924 8.25769 12.9822 8.29911C12.0737 8.34072 11.4536 8.48454 10.9111 8.69556C10.3498 8.91352 9.87372 9.20508 9.3994 9.67957C8.92473 10.1539 8.63317 10.63 8.4145 11.1911C8.20294 11.7338 8.05894 12.3541 8.01805 13.2622C7.97734 14.1724 7.96667 14.4634 7.96667 16.781C7.96667 19.0985 7.97699 19.3885 8.01823 20.2987C8.06001 21.2072 8.20383 21.8273 8.41468 22.3698C8.63282 22.9311 8.92437 23.4072 9.39887 23.8815C9.87301 24.3562 10.3491 24.6484 10.91 24.8664C11.4529 25.0774 12.0732 25.2212 12.9815 25.2628C13.8917 25.3043 14.1824 25.3144 16.4997 25.3144C18.8175 25.3144 19.1074 25.3043 20.0176 25.2628C20.9261 25.2212 21.5469 25.0774 22.0898 24.8664C22.6509 24.6484 23.1263 24.3562 23.6004 23.8815C24.0751 23.4072 24.3667 22.9311 24.5853 22.37C24.7951 21.8273 24.9391 21.207 24.9818 20.2989C25.0227 19.3887 25.0333 19.0985 25.0333 16.781C25.0333 14.4634 25.0227 14.1726 24.9818 13.2624C24.9391 12.3539 24.7951 11.7338 24.5853 11.1912C24.3667 10.63 24.0751 10.1539 23.6004 9.67957C23.1258 9.2049 22.6511 8.91334 22.0893 8.69556C21.5453 8.48454 20.9249 8.34072 20.0164 8.29911C19.1062 8.25769 18.8164 8.24756 16.4981 8.24756H16.5008ZM15.7353 9.78533C15.9625 9.78497 16.216 9.78533 16.5008 9.78533C18.7792 9.78533 19.0492 9.79351 19.949 9.8344C20.781 9.87244 21.2326 10.0115 21.5334 10.1283C21.9316 10.2829 22.2155 10.4678 22.514 10.7665C22.8127 11.0652 22.9976 11.3496 23.1526 11.7478C23.2694 12.0483 23.4086 12.4998 23.4464 13.3319C23.4873 14.2314 23.4962 14.5016 23.4962 16.779C23.4962 19.0564 23.4873 19.3266 23.4464 20.2261C23.4084 21.0582 23.2694 21.5097 23.1526 21.8102C22.9979 22.2084 22.8127 22.492 22.514 22.7904C22.2153 23.0891 21.9318 23.274 21.5334 23.4287C21.2329 23.546 20.781 23.6847 19.949 23.7227C19.0494 23.7636 18.7792 23.7725 16.5008 23.7725C14.2222 23.7725 13.9521 23.7636 13.0526 23.7227C12.2205 23.6843 11.769 23.5453 11.468 23.4285C11.0698 23.2738 10.7853 23.0889 10.4867 22.7903C10.188 22.4916 10.0031 22.2079 9.84808 21.8095C9.73128 21.509 9.59208 21.0574 9.55421 20.2254C9.51332 19.3259 9.50514 19.0556 9.50514 16.7769C9.50514 14.4981 9.51332 14.2293 9.55421 13.3297C9.59226 12.4977 9.73128 12.0462 9.84808 11.7453C10.0027 11.3471 10.188 11.0627 10.4867 10.764C10.7853 10.4653 11.0698 10.2804 11.468 10.1254C11.7688 10.0081 12.2205 9.86942 13.0526 9.8312C13.8398 9.79564 14.1448 9.78497 15.7353 9.7832V9.78533ZM21.0558 11.2022C20.4905 11.2022 20.0318 11.6604 20.0318 12.2259C20.0318 12.7912 20.4905 13.2499 21.0558 13.2499C21.6212 13.2499 22.0799 12.7912 22.0799 12.2259C22.0799 11.6606 21.6212 11.2022 21.0558 11.2022ZM16.5008 12.3987C14.0807 12.3987 12.1186 14.3608 12.1186 16.781C12.1186 19.2011 14.0807 21.1623 16.5008 21.1623C18.9209 21.1623 20.8824 19.2011 20.8824 16.781C20.8824 14.3608 18.9209 12.3987 16.5008 12.3987ZM16.5008 13.9365C18.0717 13.9365 19.3453 15.2099 19.3453 16.781C19.3453 18.3518 18.0717 19.6254 16.5008 19.6254C14.9298 19.6254 13.6563 18.3518 13.6563 16.781C13.6563 15.2099 14.9298 13.9365 16.5008 13.9365Z" fill="white"/>
</svg>
