<svg width="33" height="33" viewBox="0 0 33 33" fill="none" xmlns="http://www.w3.org/2000/svg">
<path opacity="0.1" fill-rule="evenodd" clip-rule="evenodd" d="M0.5 16.781C0.5 7.94445 7.66344 0.781006 16.5 0.781006C25.3366 0.781006 32.5 7.94445 32.5 16.781C32.5 25.6176 25.3366 32.781 16.5 32.781C7.66344 32.781 0.5 25.6176 0.5 16.781Z" fill="white"/>
<path fill-rule="evenodd" clip-rule="evenodd" d="M25.0333 16.7691C25.0333 17.3462 24.9746 17.9224 24.8592 18.4842C24.7467 19.0326 24.58 19.571 24.3617 20.0857C24.1483 20.5913 23.8837 21.0785 23.5745 21.5328C23.27 21.9843 22.9191 22.4079 22.5337 22.794C22.1474 23.1785 21.7224 23.5284 21.2711 23.8342C20.8152 24.1413 20.3273 24.4055 19.8215 24.6198C19.306 24.837 18.7664 25.0034 18.2184 25.1158C17.6559 25.2315 17.0776 25.2905 16.4996 25.2905C15.9213 25.2905 15.3429 25.2315 14.7812 25.1158C14.2324 25.0034 13.6928 24.837 13.1778 24.6198C12.6719 24.4055 12.1836 24.1413 11.7277 23.8342C11.2764 23.5284 10.8514 23.1785 10.466 22.794C10.0801 22.4079 9.72928 21.9843 9.42427 21.5328C9.11675 21.0785 8.85172 20.5912 8.63755 20.0857C8.41918 19.571 8.25211 19.0326 8.13919 18.4842C8.02503 17.9224 7.96667 17.3462 7.96667 16.7691C7.96667 16.1915 8.02499 15.614 8.13922 15.0535C8.25215 14.5051 8.41922 13.9658 8.63759 13.452C8.85175 12.946 9.11678 12.4584 9.4243 12.004C9.72931 11.5522 10.0802 11.1294 10.466 10.7428C10.8515 10.3583 11.2765 10.0093 11.7278 9.70388C12.1836 9.39554 12.672 9.13136 13.1778 8.91664C13.6929 8.69898 14.2324 8.53215 14.7812 8.42066C15.3429 8.30582 15.9213 8.24756 16.4997 8.24756C17.0776 8.24756 17.6559 8.30582 18.2185 8.42066C18.7664 8.53219 19.306 8.69901 19.8215 8.91664C20.3273 9.13132 20.8153 9.39554 21.2711 9.70388C21.7224 10.0093 22.1475 10.3583 22.5337 10.7428C22.9191 11.1294 23.27 11.5522 23.5746 12.004C23.8837 12.4584 24.1483 12.9461 24.3617 13.452C24.58 13.9658 24.7467 14.5051 24.8592 15.0535C24.9746 15.614 25.0333 16.1915 25.0333 16.7691ZM13.3903 10.1869C11.3581 11.1452 9.84131 13.0151 9.36836 15.2686C9.56048 15.2703 12.5973 15.3086 16.0962 14.3803C14.8349 12.1425 13.4874 10.3164 13.3903 10.1869ZM16.7 15.5008C12.9477 16.6226 9.34711 16.5419 9.21795 16.5369C9.21585 16.6151 9.21211 16.6908 9.21211 16.7691C9.21211 18.6385 9.91839 20.3428 11.0793 21.6315C11.0768 21.6277 13.0711 18.0947 17.0038 16.8248C17.0988 16.7932 17.1955 16.7649 17.2913 16.7374C17.1084 16.3239 16.9087 15.9094 16.7 15.5008ZM21.3124 11.3075C20.0293 10.1778 18.3447 9.49252 16.4996 9.49252C15.9075 9.49252 15.3329 9.56409 14.7824 9.6964C14.8916 9.84289 16.2604 11.6562 17.5067 13.9413C20.2565 12.9119 21.2944 11.3341 21.3124 11.3075ZM17.788 17.9433C17.7718 17.9486 17.7556 17.9533 17.7397 17.9591C13.44 19.4559 12.0358 22.4723 12.0206 22.5052C13.2578 23.466 14.8096 24.0456 16.4996 24.0456C17.5088 24.0456 18.4701 23.8404 19.3448 23.4689C19.2368 22.8331 18.8135 20.6046 17.788 17.9433ZM20.5719 22.804C22.2082 21.7014 23.3703 19.9505 23.6945 17.9224C23.5445 17.8741 21.5057 17.2296 19.1535 17.6062C20.1093 20.2292 20.4977 22.3654 20.5719 22.804ZM18.0676 15.0256C18.2368 15.3727 18.4006 15.7259 18.5518 16.0808C18.6056 16.2082 18.6581 16.333 18.7093 16.4578C21.2128 16.1432 23.6792 16.6725 23.7846 16.6941C23.7679 14.969 23.15 13.3858 22.1275 12.1463C22.1137 12.1658 20.9449 13.8522 18.0676 15.0256Z" fill="white"/>
</svg>
