<svg width="33" height="33" viewBox="0 0 33 33" fill="none" xmlns="http://www.w3.org/2000/svg">
<path opacity="0.1" fill-rule="evenodd" clip-rule="evenodd" d="M0.5 16.781C0.5 7.94445 7.66344 0.781006 16.5 0.781006C25.3366 0.781006 32.5 7.94445 32.5 16.781C32.5 25.6176 25.3366 32.781 16.5 32.781C7.66344 32.781 0.5 25.6176 0.5 16.781Z" fill="white"/>
<path fill-rule="evenodd" clip-rule="evenodd" d="M16.0208 13.7861L16.0544 14.3397L15.4948 14.2719C13.4579 14.0121 11.6784 13.1308 10.1676 11.6507L9.42891 10.9162L9.23865 11.4586C8.83575 12.6675 9.09316 13.9443 9.93253 14.803C10.3802 15.2775 10.2795 15.3453 9.50725 15.0629C9.23865 14.9725 9.00363 14.9047 8.98124 14.9386C8.9029 15.0177 9.1715 16.0458 9.38414 16.4526C9.67513 17.0175 10.2683 17.5712 10.9174 17.8988L11.4658 18.1587L10.8167 18.17C10.1899 18.17 10.1676 18.1813 10.2347 18.4186C10.4585 19.153 11.3427 19.9326 12.3276 20.2716L13.0214 20.5088L12.4171 20.8704C11.5218 21.3901 10.4697 21.6839 9.41772 21.7065C8.91409 21.7178 8.5 21.763 8.5 21.7969C8.5 21.9099 9.86538 22.5426 10.66 22.7912C13.0438 23.5256 15.8753 23.2092 18.0017 21.9551C19.5126 21.0625 21.0235 19.2886 21.7286 17.5712C22.1091 16.656 22.4896 14.9838 22.4896 14.1816C22.4896 13.6618 22.5232 13.594 23.1499 12.9726C23.5192 12.611 23.8662 12.2156 23.9333 12.1026C24.0452 11.8879 24.034 11.8879 23.4633 12.08C22.512 12.419 22.3777 12.3738 22.8477 11.8653C23.1947 11.5038 23.6088 10.8484 23.6088 10.6564C23.6088 10.6225 23.4409 10.679 23.2506 10.7807C23.0492 10.8936 22.6015 11.0631 22.2658 11.1648L21.6614 11.3569L21.113 10.984C20.8108 10.7807 20.3856 10.5547 20.1617 10.4869C19.5909 10.3287 18.718 10.3513 18.2032 10.5321C16.8042 11.0405 15.9201 12.3512 16.0208 13.7861Z" fill="white"/>
</svg>
